HIERARCHY
ROOT Hips
{
	OFFSET 0.000000 0.000000 0.000000
	CHANNELS 6 Xposition Yposition Zposition Xrotation Yrotation Zrotation
	JOINT LeftUpLeg_virtual
	{
		OFFSET 0.000000 0.000000 0.000000
		CHANNELS 3 Xrotation Yrotation Zrotation
		JOINT LeftUpLeg
		{
			OFFSET 13.026900 -6.336304 -1.092800
			CHANNELS 3 Xrotation Yrotation Zrotation
			JOINT LeftLeg
			{
				OFFSET 0.524474 -46.096886 9.782700
				CHANNELS 3 Xrotation Yrotation Zrotation
				JOINT LeftFoot
				{
					OFFSET -0.524474 -53.427422 -12.948200
					CHANNELS 3 Xrotation Yrotation Zrotation
					JOINT LeftToeBase
					{
						OFFSET 0.192200 -14.009700 16.364100
						CHANNELS 3 Xrotation Yrotation Zrotation
						JOINT LeftToe_End
						{
							OFFSET -1.784700 -0.561700 9.474800
							CHANNELS 3 Xrotation Yrotation Zrotation
							End Site
							{
								OFFSET 0 0 0
							}
						}
					}
				}
			}
		}
	}
	JOINT RightUpLeg_virtual
	{
		OFFSET 0.000000 0.000000 0.000000
		CHANNELS 3 Xrotation Yrotation Zrotation
		JOINT RightUpLeg
		{
			OFFSET -12.883000 -6.336304 -1.092800
			CHANNELS 3 Xrotation Yrotation Zrotation
			JOINT RightLeg
			{
				OFFSET -0.524587 -46.096825 9.782800
				CHANNELS 3 Xrotation Yrotation Zrotation
				JOINT RightFoot
				{
					OFFSET 0.524587 -53.427383 -12.948300
					CHANNELS 3 Xrotation Yrotation Zrotation
					JOINT RightToeBase
					{
						OFFSET -0.192200 -14.009700 16.364100
						CHANNELS 3 Xrotation Yrotation Zrotation
						JOINT RightToe_End
						{
							OFFSET 1.784700 -0.561700 9.474800
							CHANNELS 3 Xrotation Yrotation Zrotation
							End Site
							{
								OFFSET 0 0 0
							}
						}
					}
				}
			}
		}
	}
	JOINT Spine_virtual
	{
		OFFSET 0.000000 0.000000 0.000000
		CHANNELS 3 Xrotation Yrotation Zrotation
		JOINT Spine
		{
			OFFSET 0.072000 7.257294 -0.789700
			CHANNELS 3 Xrotation Yrotation Zrotation
			JOINT Spine1
			{
				OFFSET 0.000000 12.508769 -0.658067
				CHANNELS 3 Xrotation Yrotation Zrotation
				JOINT Spine1_split
				{
					OFFSET 0.000000 12.508769 -0.658067
					CHANNELS 3 Xrotation Yrotation Zrotation
					JOINT Spine2
					{
						OFFSET 0.000000 12.508769 -0.658067
						CHANNELS 3 Xrotation Yrotation Zrotation
						JOINT Neck_virtual
						{
							OFFSET 0.000000 0.000000 0.000000
							CHANNELS 3 Xrotation Yrotation Zrotation
							JOINT Neck
							{
								OFFSET 0.000000 14.033295 7.520400
								CHANNELS 3 Xrotation Yrotation Zrotation
								JOINT Head
								{
									OFFSET 0.000000 8.198502 5.703100
									CHANNELS 3 Xrotation Yrotation Zrotation
									JOINT HeadTop_End
									{
										OFFSET 0.000000 17.760803 13.332701
										CHANNELS 3 Xrotation Yrotation Zrotation
										End Site
										{
											OFFSET 0 0 0
										}
									}
								}
							}
						}
						JOINT LeftShoulder_virtual
						{
							OFFSET 0.000000 0.000000 0.000000
							CHANNELS 3 Xrotation Yrotation Zrotation
							JOINT LeftShoulder
							{
								OFFSET 6.292450 5.785301 -0.669000
								CHANNELS 3 Xrotation Yrotation Zrotation
								JOINT LeftShoulder_split
								{
									OFFSET 6.292450 5.785301 -0.669000
									CHANNELS 3 Xrotation Yrotation Zrotation
									JOINT LeftArm
									{
										OFFSET 13.907140 -6.093903 1.965100
										CHANNELS 3 Xrotation Yrotation Zrotation
										JOINT LeftForeArm
										{
											OFFSET 34.140198 0.000000 0.000000
											CHANNELS 3 Xrotation Yrotation Zrotation
											JOINT LeftHand
											{
												OFFSET 40.960209 0.000000 0.000000
												CHANNELS 3 Xrotation Yrotation Zrotation
												End Site
												{
													OFFSET 0 0 0
												}
											}
										}
									}
								}
							}
						}
						JOINT RightShoulder_virtual
						{
							OFFSET 0.000000 0.000000 0.000000
							CHANNELS 3 Xrotation Yrotation Zrotation
							JOINT RightShoulder
							{
								OFFSET -6.292450 5.785301 -0.669000
								CHANNELS 3 Xrotation Yrotation Zrotation
								JOINT RightShoulder_split
								{
									OFFSET -6.292450 5.785301 -0.669000
									CHANNELS 3 Xrotation Yrotation Zrotation
									JOINT RightArm
									{
										OFFSET -13.907140 -6.093903 1.965100
										CHANNELS 3 Xrotation Yrotation Zrotation
										JOINT RightForeArm
										{
											OFFSET -34.140198 0.000000 0.000000
											CHANNELS 3 Xrotation Yrotation Zrotation
											JOINT RightHand
											{
												OFFSET -40.960209 0.000000 0.000000
												CHANNELS 3 Xrotation Yrotation Zrotation
												End Site
												{
													OFFSET 0 0 0
												}
											}
										}
									}
								}
							}
						}
					}
				}
			}
		}
	}
}
MOTION
Frames: 4
Frame Time: 0.03333333
-10.841852 106.102257 105.463516 0.000000 0.000000 0.000000 27.279595 16.640002 -6.976303 -35.337872 -4.822140 -6.494123 33.637971 3.501987 -4.437354 -20.507020 2.761472 7.930510 -2.121076 0.665818 1.586434 0.000000 0.000000 0.000000 27.588533 12.801587 -6.451307 -57.564957 2.421181 -11.041404 51.792348 -3.871207 1.308775 12.856742 1.613968 9.876711 -8.184212 1.188315 -1.268677 0.000000 0.000000 0.000000 27.687345 11.610821 -7.419650 7.484942 0.207928 -3.425629 0.065945 2.337071 -0.379047 0.417987 0.687670 0.087514 0.000000 0.000000 0.000000 -0.114688 2.464881 -0.409984 -13.355381 0.729602 -0.039861 -8.065479 3.106434 -2.455386 0.000000 0.000000 0.000000 -0.596366 2.652655 -0.563865 0.816053 -1.040201 -19.385385 -0.287745 0.805467 -1.963979 16.552735 -6.793847 -45.820997 2.533436 -64.743363 1.015688 0.000000 0.000000 0.000000 -0.193047 2.601141 -0.615686 1.191468 3.601011 18.530892 3.630329 5.238992 -2.078956 11.570896 -12.659741 50.784355 -1.504892 68.263574 1.849271 0.000000 0.000000 0.000000 
-10.083036 105.401718 112.588837 0.000000 0.000000 0.000000 27.395698 16.758815 -7.496478 -31.169541 -7.438870 -5.501242 32.606025 4.744111 -4.858429 -23.988661 1.356591 6.764880 -2.399048 0.933362 1.566235 0.000000 0.000000 0.000000 27.711607 14.762380 -7.530430 -61.020821 4.152920 -12.655517 47.811130 -3.386243 1.228648 11.070470 1.825376 11.874819 -9.620996 0.552080 -0.490902 0.000000 0.000000 0.000000 27.121341 12.389119 -7.815165 7.624890 -0.352372 -3.132059 0.203606 2.327188 -0.294768 0.599322 0.793635 0.367815 0.000000 0.000000 0.000000 -0.022272 2.455306 -0.366769 -13.505482 0.513962 0.021011 -8.481924 2.761768 -2.432607 0.000000 0.000000 0.000000 -0.504841 2.654983 -0.477286 0.782530 -0.893611 -19.126724 -0.221701 0.511841 -1.727532 17.064954 -7.396215 -45.862200 2.690557 -64.735870 1.142711 0.000000 0.000000 0.000000 0.017868 2.570149 -0.647020 1.170296 3.347237 18.153944 3.804289 5.411874 -1.426044 11.948969 -12.509443 50.448334 -1.572738 68.529330 1.866581 0.000000 0.000000 0.000000 
-9.407396 103.874565 119.060043 0.000000 0.000000 0.000000 27.115197 16.991771 -8.232486 -28.252867 -10.240982 -3.627471 33.483759 4.623650 -4.890044 -25.099774 -0.037948 4.037071 -3.605147 1.158164 1.880865 0.000000 0.000000 0.000000 27.825229 16.888567 -8.882325 -64.109726 4.737112 -13.818904 42.864314 -3.525311 1.494217 8.197487 1.251573 12.936096 -8.318715 0.077688 0.065146 0.000000 0.000000 0.000000 26.208768 13.208035 -8.190271 8.010356 -0.943643 -2.883317 0.350415 2.352392 -0.243209 0.883786 1.049466 0.569450 0.000000 0.000000 0.000000 0.022938 2.451922 -0.363273 -13.585724 0.257300 0.205919 -9.046916 2.462565 -2.486555 0.000000 0.000000 0.000000 -0.406907 2.670915 -0.397498 0.753242 -0.743585 -18.643165 -0.013012 0.061880 -1.296663 17.492159 -7.614963 -46.271147 2.766714 -65.145450 1.287958 0.000000 0.000000 0.000000 0.205074 2.552754 -0.678835 1.161896 3.071302 17.645024 3.813443 5.345953 -0.718366 12.761995 -12.118671 50.361351 -1.403102 69.007560 1.659172 0.000000 0.000000 0.000000 
-8.990391 102.214737 125.104095 0.000000 0.000000 0.000000 26.804840 17.709758 -9.130480 -25.642967 -12.690535 -1.583533 34.729111 4.314542 -4.612225 -25.140712 -1.237173 1.493608 -4.399834 1.323442 1.982850 0.000000 0.000000 0.000000 27.761985 19.277254 -10.233541 -67.108214 4.220774 -14.268067 38.070252 -4.491897 1.959107 4.654250 -0.191189 12.515362 -4.570256 -0.078306 0.316822 0.000000 0.000000 0.000000 25.240250 14.315334 -8.519301 8.562119 -1.625374 -2.628365 0.509843 2.336730 -0.222245 1.214311 1.396499 0.723430 0.000000 0.000000 0.000000 -0.014442 2.401582 -0.361922 -13.555152 0.049692 0.413819 -9.626300 2.294937 -2.638261 0.000000 0.000000 0.000000 -0.290672 2.633910 -0.318523 0.733860 -0.645873 -17.990865 0.274861 -0.427325 -0.894535 17.800660 -7.461068 -47.102091 2.725414 -65.613072 1.422028 0.000000 0.000000 0.000000 0.334401 2.499008 -0.695714 1.164419 2.801911 17.108886 3.641722 5.060245 0.003219 13.935743 -11.499623 50.553915 -1.078899 69.493247 1.309007 0.000000 0.000000 0.000000 
